<svg xmlns="http://www.w3.org/2000/svg" width="1540" height="1040" viewBox="0 0 1540 1040" font-family="Segoe UI, Helvetica, Arial, sans-serif">
<rect width="1540" height="1040" fill="#ffffff"/>
<defs>
<marker id="a1" markerWidth="10" markerHeight="10" refX="7" refY="3" orient="auto"><path d="M0,0 L7,3 L0,6 Z" fill="#1e1e1e"/></marker>
<marker id="a2" markerWidth="10" markerHeight="10" refX="7" refY="3" orient="auto"><path d="M0,0 L7,3 L0,6 Z" fill="#868e96"/></marker>
<marker id="a3" markerWidth="10" markerHeight="10" refX="7" refY="3" orient="auto"><path d="M0,0 L7,3 L0,6 Z" fill="#495057"/></marker>
<marker id="a4" markerWidth="10" markerHeight="10" refX="7" refY="3" orient="auto"><path d="M0,0 L7,3 L0,6 Z" fill="#099268"/></marker>
<marker id="a5" markerWidth="10" markerHeight="10" refX="7" refY="3" orient="auto"><path d="M0,0 L7,3 L0,6 Z" fill="#c92a2a"/></marker>
<marker id="a6" markerWidth="10" markerHeight="10" refX="7" refY="3" orient="auto"><path d="M0,0 L7,3 L0,6 Z" fill="#2b8a3e"/></marker>
</defs>
<text x="60" y="44.0" fill="#1e1e1e" font-size="25" font-weight="700" text-anchor="start">Pharmacy Bin Keeper — Aliran Proses &amp; Seni Bina Hosting Setempat</text>
<text x="60" y="70.0" fill="#868e96" font-size="13" font-weight="400" text-anchor="start">Self-hosted di PC pejabat (Docker + Supabase) · akses LAN · data kekal dalam premis · kos pelesenan RM0</text>
<rect x="60" y="100" width="1410" height="170" rx="10" fill="#f8f9fa" stroke="#1e1e1e" stroke-width="2"/>
<text x="78" y="128.0" fill="#1e1e1e" font-size="15" font-weight="700" text-anchor="start">①  HOSTING SETEMPAT — PC PEJABAT  (LAN · tiada awan luar)</text>
<rect x="100" y="155" width="250" height="95" rx="10" fill="#f1f3f5" stroke="#495057" stroke-width="2"/>
<text x="225.0" y="185.14" fill="#495057" font-size="14" text-anchor="middle" dominant-baseline="middle" font-weight="500">Pelayar Web Staf</text>
<text x="225.0" y="202.64" fill="#495057" font-size="14" text-anchor="middle" dominant-baseline="middle" font-weight="500">(Admin · Farmasi</text>
<text x="225.0" y="220.14" fill="#495057" font-size="14" text-anchor="middle" dominant-baseline="middle" font-weight="500">MO · FMS)</text>
<rect x="470" y="150" width="520" height="110" rx="10" fill="#ffffff" stroke="#1e1e1e" stroke-width="2"/>
<text x="486" y="175.0" fill="#1e1e1e" font-size="13" font-weight="600" text-anchor="start">Docker Engine</text>
<rect x="490" y="188" width="480" height="58" rx="10" fill="#f1f3f5" stroke="#495057" stroke-width="2"/>
<text x="730.0" y="217.0" fill="#495057" font-size="13" text-anchor="middle" dominant-baseline="middle" font-weight="500">Supabase — PostgreSQL · Auth · API · Storan</text>
<rect x="1120" y="155" width="300" height="95" rx="10" fill="#f1f3f5" stroke="#495057" stroke-width="2"/>
<text x="1270.0" y="185.14" fill="#495057" font-size="14" text-anchor="middle" dominant-baseline="middle" font-weight="500">Sandaran berkala</text>
<text x="1270.0" y="202.64" fill="#495057" font-size="14" text-anchor="middle" dominant-baseline="middle" font-weight="500">→ storan dalaman</text>
<text x="1270.0" y="220.14" fill="#495057" font-size="14" text-anchor="middle" dominant-baseline="middle" font-weight="500">(pg_dump)</text>
<line x1="356.0" y1="203.1" x2="481.0" y2="216.1" stroke="#1e1e1e" stroke-width="2" marker-end="url(#a1)"/>
<rect x="350.3" y="200.6" width="136.4" height="16" fill="#ffffff" opacity="0.92"/>
<text x="418.5" y="212.6" fill="#1e1e1e" font-size="11" text-anchor="middle">LAN  http://PC_IP:8000</text>
<line x1="976.0" y1="216.4" x2="1111.0" y2="203.4" stroke="#1e1e1e" stroke-width="2" marker-end="url(#a1)"/>
<text x="60" y="296.0" fill="#1e1e1e" font-size="15" font-weight="700" text-anchor="start">②  ALIRAN PROSES APLIKASI  (setiap peranan log masuk via Supabase Auth — RBAC)</text>
<rect x="70" y="400" width="180" height="64" rx="10" fill="#f3f0ff" stroke="#6741d9" stroke-width="2"/>
<text x="160.0" y="432.0" fill="#6741d9" font-size="14" text-anchor="middle" dominant-baseline="middle" font-weight="500">ADMIN</text>
<rect x="70" y="520" width="180" height="64" rx="10" fill="#e6fcf5" stroke="#099268" stroke-width="2"/>
<text x="160.0" y="552.0" fill="#099268" font-size="14" text-anchor="middle" dominant-baseline="middle" font-weight="500">FARMASI</text>
<rect x="70" y="690" width="180" height="64" rx="10" fill="#e7f5ff" stroke="#1971c2" stroke-width="2"/>
<text x="160.0" y="722.0" fill="#1971c2" font-size="14" text-anchor="middle" dominant-baseline="middle" font-weight="500">MO / DOKTOR</text>
<rect x="70" y="850" width="180" height="64" rx="10" fill="#fff4e6" stroke="#e8590c" stroke-width="2"/>
<text x="160.0" y="882.0" fill="#e8590c" font-size="14" text-anchor="middle" dominant-baseline="middle" font-weight="500">FMS / PAKAR</text>
<rect x="310" y="392" width="290" height="80" rx="10" fill="#f1f3f5" stroke="#495057" stroke-width="2"/>
<text x="455.0" y="417.12" fill="#495057" font-size="12" text-anchor="middle" dominant-baseline="middle" font-weight="500">Master Ubat</text>
<text x="455.0" y="432.12" fill="#495057" font-size="12" text-anchor="middle" dominant-baseline="middle" font-weight="500">lokasi petak · stok min/reorder/max</text>
<text x="455.0" y="447.12" fill="#495057" font-size="12" text-anchor="middle" dominant-baseline="middle" font-weight="500">kuota · perlu kelulusan pakar</text>
<rect x="310" y="520" width="200" height="64" rx="10" fill="#e6fcf5" stroke="#099268" stroke-width="2"/>
<text x="410.0" y="543.32" fill="#099268" font-size="14" text-anchor="middle" dominant-baseline="middle" font-weight="500">Terimaan Stok</text>
<text x="410.0" y="560.82" fill="#099268" font-size="14" text-anchor="middle" dominant-baseline="middle" font-weight="500">(stok masuk)</text>
<rect x="660" y="508" width="270" height="84" rx="10" fill="#f1f3f5" stroke="#495057" stroke-width="2"/>
<text x="795.0" y="541.94" fill="#495057" font-size="13" text-anchor="middle" dominant-baseline="middle" font-weight="500">Lejar Transaksi</text>
<text x="795.0" y="558.19" fill="#495057" font-size="13" text-anchor="middle" dominant-baseline="middle" font-weight="500">baki awal · terimaan · keluaran</text>
<rect x="990" y="518" width="230" height="64" rx="10" fill="#f1f3f5" stroke="#495057" stroke-width="2"/>
<text x="1105.0" y="541.32" fill="#495057" font-size="14" text-anchor="middle" dominant-baseline="middle" font-weight="500">Baki Stok</text>
<text x="1105.0" y="558.82" fill="#495057" font-size="14" text-anchor="middle" dominant-baseline="middle" font-weight="500">(dikira automatik)</text>
<rect x="990" y="392" width="230" height="74" rx="10" fill="#e6fcf5" stroke="#099268" stroke-width="2"/>
<text x="1105.0" y="429.0" fill="#099268" font-size="14" text-anchor="middle" dominant-baseline="middle" font-weight="500">Kad Petak Elektronik</text>
<rect x="1270" y="508" width="200" height="84" rx="10" fill="#f1f3f5" stroke="#495057" stroke-width="2"/>
<text x="1370.0" y="535.12" fill="#495057" font-size="12" text-anchor="middle" dominant-baseline="middle" font-weight="500">Laporan &amp; Papan Pemuka</text>
<text x="1370.0" y="550.12" fill="#495057" font-size="12" text-anchor="middle" dominant-baseline="middle" font-weight="500">kritikal/rendah/</text>
<text x="1370.0" y="565.12" fill="#495057" font-size="12" text-anchor="middle" dominant-baseline="middle" font-weight="500">normal/lebihan</text>
<line x1="256.0" y1="432.0" x2="301.0" y2="432.0" stroke="#1e1e1e" stroke-width="2" marker-end="url(#a1)"/>
<line x1="256.0" y1="552.0" x2="301.0" y2="552.0" stroke="#1e1e1e" stroke-width="2" marker-end="url(#a1)"/>
<line x1="516.0" y1="551.9" x2="651.0" y2="550.1" stroke="#1e1e1e" stroke-width="2" marker-end="url(#a1)"/>
<line x1="461.0" y1="472.6" x2="786.1" y2="507.1" stroke="#1e1e1e" stroke-width="2" marker-end="url(#a1)"/>
<rect x="586.3" y="480.8" width="74.4" height="16" fill="#ffffff" opacity="0.92"/>
<text x="623.5" y="492.8" fill="#1e1e1e" font-size="11" text-anchor="middle">rujukan ubat</text>
<line x1="936.0" y1="550.0" x2="981.0" y2="550.0" stroke="#1e1e1e" stroke-width="2" marker-end="url(#a1)"/>
<line x1="1105.0" y1="512.0" x2="1105.0" y2="475.0" stroke="#1e1e1e" stroke-width="2" marker-end="url(#a1)"/>
<line x1="606.0" y1="432.0" x2="981.0" y2="429.1" stroke="#868e96" stroke-width="2" stroke-dasharray="6 5" marker-end="url(#a2)"/>
<rect x="774.9" y="421.5" width="37.2" height="16" fill="#ffffff" opacity="0.92"/>
<text x="793.5" y="433.5" fill="#868e96" font-size="11" text-anchor="middle">lokasi</text>
<line x1="1226.0" y1="550.0" x2="1261.0" y2="550.0" stroke="#1e1e1e" stroke-width="2" marker-end="url(#a1)"/>
<rect x="310" y="668" width="240" height="70" rx="10" fill="#e7f5ff" stroke="#1971c2" stroke-width="2"/>
<text x="430.0" y="694.32" fill="#1971c2" font-size="14" text-anchor="middle" dominant-baseline="middle" font-weight="500">Permohonan Ubat</text>
<text x="430.0" y="711.82" fill="#1971c2" font-size="14" text-anchor="middle" dominant-baseline="middle" font-weight="500">(oleh MO)</text>
<rect x="310" y="848" width="240" height="70" rx="10" fill="#e7f5ff" stroke="#1971c2" stroke-width="2"/>
<text x="430.0" y="874.32" fill="#1971c2" font-size="14" text-anchor="middle" dominant-baseline="middle" font-weight="500">Borang Antibiotik</text>
<text x="430.0" y="891.82" fill="#1971c2" font-size="14" text-anchor="middle" dominant-baseline="middle" font-weight="500">(NAG 2024)</text>
<rect x="660" y="848" width="230" height="70" rx="10" fill="#fff4e6" stroke="#e8590c" stroke-width="2"/>
<text x="775.0" y="874.32" fill="#e8590c" font-size="14" text-anchor="middle" dominant-baseline="middle" font-weight="500">Kelulusan Pakar</text>
<text x="775.0" y="891.82" fill="#e8590c" font-size="14" text-anchor="middle" dominant-baseline="middle" font-weight="500">lulus / tolak</text>
<rect x="660" y="668" width="240" height="70" rx="10" fill="#e6fcf5" stroke="#099268" stroke-width="2"/>
<text x="780.0" y="703.0" fill="#099268" font-size="14" text-anchor="middle" dominant-baseline="middle" font-weight="500">Pendispensan Ubat</text>
<rect x="990" y="668" width="270" height="70" rx="10" fill="#f1f3f5" stroke="#495057" stroke-width="2"/>
<text x="1125.0" y="694.94" fill="#495057" font-size="13" text-anchor="middle" dominant-baseline="middle" font-weight="500">Daftar Pesakit + Sejarah Ubat</text>
<text x="1125.0" y="711.19" fill="#495057" font-size="13" text-anchor="middle" dominant-baseline="middle" font-weight="500">(auto diwujudkan)</text>
<line x1="255.7" y1="720.2" x2="301.4" y2="705.7" stroke="#1e1e1e" stroke-width="2" marker-end="url(#a1)"/>
<line x1="164.5" y1="757.9" x2="303.2" y2="877.1" stroke="#1e1e1e" stroke-width="2" marker-end="url(#a1)"/>
<line x1="556.0" y1="883.0" x2="651.0" y2="883.0" stroke="#1e1e1e" stroke-width="2" marker-end="url(#a1)"/>
<line x1="256.0" y1="882.4" x2="766.0" y2="917.4" stroke="#1e1e1e" stroke-width="2" marker-end="url(#a1)"/>
<rect x="470.7" y="890.9" width="80.6" height="16" fill="#ffffff" opacity="0.92"/>
<text x="511.0" y="902.9" fill="#1e1e1e" font-size="11" text-anchor="middle">semak &amp; lulus</text>
<line x1="556.0" y1="703.0" x2="651.0" y2="703.0" stroke="#1e1e1e" stroke-width="2" marker-end="url(#a1)"/>
<line x1="775.3" y1="842.0" x2="779.6" y2="747.0" stroke="#1e1e1e" stroke-width="2" marker-end="url(#a1)"/>
<rect x="746.4" y="785.5" width="62.0" height="16" fill="#ffffff" opacity="0.92"/>
<text x="777.4" y="797.5" fill="#1e1e1e" font-size="11" text-anchor="middle">diluluskan</text>
<line x1="906.0" y1="703.0" x2="981.0" y2="703.0" stroke="#1e1e1e" stroke-width="2" marker-end="url(#a1)"/>
<line x1="781.2" y1="662.1" x2="793.3" y2="600.8" stroke="#099268" stroke-width="2" marker-end="url(#a4)"/>
<rect x="734.5" y="622.5" width="105.4" height="16" fill="#ffffff" opacity="0.92"/>
<text x="787.2" y="634.5" fill="#099268" font-size="11" text-anchor="middle">keluaran (- stok)</text>
<line x1="731.4" y1="251.8" x2="792.8" y2="499.3" stroke="#495057" stroke-width="2" stroke-dasharray="6 5" marker-end="url(#a3)"/>
<rect x="666.0" y="366.5" width="192.2" height="16" fill="#ffffff" opacity="0.92"/>
<text x="762.1" y="378.5" fill="#495057" font-size="11" text-anchor="middle">simpan / baca data (PostgreSQL)</text>
<text x="70" y="952.0" fill="#1e1e1e" font-size="13" font-weight="700" text-anchor="start">Petunjuk:</text>
<rect x="170" y="938" width="150" height="36" rx="10" fill="#f3f0ff" stroke="#6741d9" stroke-width="2"/>
<text x="245.0" y="956.0" fill="#6741d9" font-size="12" text-anchor="middle" dominant-baseline="middle" font-weight="500">ADMIN</text>
<rect x="345" y="938" width="150" height="36" rx="10" fill="#e6fcf5" stroke="#099268" stroke-width="2"/>
<text x="420.0" y="956.0" fill="#099268" font-size="12" text-anchor="middle" dominant-baseline="middle" font-weight="500">FARMASI</text>
<rect x="520" y="938" width="150" height="36" rx="10" fill="#e7f5ff" stroke="#1971c2" stroke-width="2"/>
<text x="595.0" y="956.0" fill="#1971c2" font-size="12" text-anchor="middle" dominant-baseline="middle" font-weight="500">MO/DOKTOR</text>
<rect x="695" y="938" width="150" height="36" rx="10" fill="#fff4e6" stroke="#e8590c" stroke-width="2"/>
<text x="770.0" y="956.0" fill="#e8590c" font-size="12" text-anchor="middle" dominant-baseline="middle" font-weight="500">FMS/PAKAR</text>
<rect x="870" y="938" width="150" height="36" rx="10" fill="#f1f3f5" stroke="#495057" stroke-width="2"/>
<text x="945.0" y="956.0" fill="#495057" font-size="12" text-anchor="middle" dominant-baseline="middle" font-weight="500">SISTEM/DATA</text>
</svg>